<svg xmlns="http://www.w3.org/2000/svg" viewBox="0 0 1400 980"  xmlns:v="https://vecta.io/nano"><g fill="#fff"><path d="M0 0h1400v980H0z" pointer-events="none"/><path d="M1161.018 510.016c34.666 0 62.802 28.135 62.802 62.801s-28.135 62.802-62.802 62.802-62.802-28.135-62.802-62.802 28.135-62.801 62.802-62.801z"/><path d="M1192.499 510.474c34.285 0 62.111 27.826 62.111 62.111s-27.826 62.111-62.111 62.111-62.111-27.826-62.111-62.111 27.826-62.111 62.111-62.111z"/></g><g fill="#f2f2f2"><path d="M1181.35 561.099c43.456-109.553 33.618-233.069-26.631-334.363l-607.087 84.058 581.784-121.247A378.69 378.69 0 0 0 828.787 41.54c-209.502 0-379.337 169.835-379.337 379.337a382.59 382.59 0 0 0 3.531 51.764z" paint-order="fill"/><path d="M474.806 557.453c54.83 142.012 192.631 242.76 353.981 242.76 151.404 0 282.073-88.711 342.912-216.982z"/></g><path d="M1162.323 689.386c0 149.072-219.792 269.909-490.906 269.909-145.65 0-276.484-34.869-366.38-90.267-58.656-36.134-99.892-81.014-116.434-130.611a153.73 153.73 0 0 1-8.093-49.031c0-149.057 406.812-821.435 490.906-269.894s490.906 120.837 490.906 269.894z" fill="rgba(233, 11, 59, 0.74)"/><path d="M915.383 787.27c0 55.041-173.825 99.669-388.262 99.669-82.591 0-159.158-6.62-222.083-17.911-58.656-36.134-99.892-81.014-116.434-130.611 66.57-30.332 193.224-50.816 338.517-50.816 214.437 0 388.262 44.628 388.262 99.669z" opacity=".1"/><path d="M635.124 219.557c-30.77-51.992-91.647-54.415-91.647-54.415s-59.321-7.586-97.375 71.599c-35.469 73.807-84.421 145.069-7.881 162.346l13.825-43.031 8.562 46.234a299.48 299.48 0 0 0 32.749.56c81.969-2.646 160.031.774 157.518-28.639-3.341-39.101 13.855-104.627-15.752-154.654z" fill="#4d2d1a"/><path d="M433.852 674.878c-1.141 5.675-1.986 11.443-3.925 16.897-1.925 5.414-4.898 10.422-6.659 15.892-5.612 17.437 2.168 36.878 14.593 50.337a82.14 82.14 0 0 0 40.048 23.781c11.209 2.819 22.864 3.225 34.416 3.617 31.987 1.085 64.798 2.055 95.107-8.225 9.576-3.328 18.826-7.53 27.632-12.553 2.78-1.325 5.23-3.253 7.17-5.645 2.312-3.291 2.607-7.56 2.587-11.581-.068-13.56-2.817-27.051-2.164-40.596.362-7.502 1.766-14.999 1.074-22.478-1.567-16.962-15.037-32.144-31.692-35.72-8.598-1.846-17.516-.84-26.27.001a669.81 669.81 0 0 1-68.369 3.057c-23.323-.149-46.503-3.709-69.71-4.081-6.863-.11-6.724 2.006-8.909 8.648a161.8 161.8 0 0 0-4.929 18.651z" fill="#2f2e41"/><path d="M500.041 340.042c-1.121 5.869-2.332 11.952-5.859 16.775-4.058 5.549-10.674 8.719-15.039 14.03-6.57 7.993-6.948 19.241-6.975 29.588-.025 9.532.169 19.699 5.484 27.611 3.45 5.135 8.699 8.735 13.829 12.192 19.934 13.434 41.475 27.109 65.509 27.552 9.958.184 20.636-2.388 27.188-9.889a40.82 40.82 0 0 0 6.583-11.744 155.95 155.95 0 0 0 11.039-47.476c.547-7.672.495-15.567-2.102-22.806-2.92-8.141-8.823-14.839-12.725-22.557-4.612-9.178-6.299-19.549-4.833-29.716.194-.716.134-1.477-.17-2.154-.651-.734-1.607-1.122-2.585-1.047l-47.656-3.431c-4.438-.221-8.858-.726-13.232-1.514-2.569-.522-9.354-4.171-11.804-3.201-4.534 1.796-5.724 22.92-6.654 27.787z" fill="#fc9"/><path d="M500.042 336.887c-1.122 5.868-2.332 11.952-5.859 16.775-4.058 5.549-10.674 8.719-15.039 14.029-6.57 7.993-6.948 19.241-6.975 29.588-.025 9.532.168 19.699 5.484 27.611 3.45 5.134 8.699 8.735 13.83 12.193 19.934 13.433 41.475 27.108 65.509 27.551 9.958.184 20.636-2.387 27.188-9.888A40.86 40.86 0 0 0 590.763 443a155.95 155.95 0 0 0 11.039-47.475c.547-7.673.495-15.568-2.102-22.807-2.919-8.141-8.822-14.838-12.724-22.557a50.22 50.22 0 0 1-4.834-29.716c.195-.716.135-1.477-.169-2.153-.651-.735-1.608-1.122-2.586-1.048l-47.655-3.431c-4.439-.22-8.858-.726-13.232-1.513-2.569-.521-9.354-4.17-11.805-3.2-4.534 1.796-5.724 22.919-6.653 27.786z" opacity=".1"/><path d="M615.533 276.515c0 38.614-31.303 69.917-69.917 69.917s-69.917-31.303-69.917-69.917c0-18.543 7.366-36.327 20.478-49.439s30.896-20.478 49.439-20.478c38.614 0 69.917 31.303 69.917 69.917z" fill="#fc9"/><path d="M509.847 433.112c3.644 3.809 7.505 7.58 12.281 9.813 4.75 2.221 10.101 2.774 15.342 2.921 12.603.355 26.266-1.955 35.033-11.016 11.302-11.68 10.929-30.518 19.788-44.145.714-1.235 1.688-2.301 2.855-3.122 1.486-.809 3.165-1.195 4.855-1.116 11.188-.105 20.934 7.152 29.73 14.067 3.94 3.098 7.978 6.307 10.464 10.66a36.13 36.13 0 0 1 3.529 10.806c4.365 21.307 5.778 43.093 7.181 64.797.775 11.988 1.55 23.988 1.493 36.001-.19 39.578-9.389 78.494-18.537 117.001-1.179 4.962-2.792 10.507-7.304 12.884a18.01 18.01 0 0 1-6.373 1.556c-26.202 3.077-52.458 6.158-78.836 6.564q-15.441.238-30.869-.748a16.63 16.63 0 0 1-5.2-.907c-2.272-1.091-4.224-2.749-5.669-4.814-14.269-17.98-15.111-42.838-15.02-65.792q.334-84.18 6.015-168.225c.313-4.625.381-10.241-2.951-13.879 6 9.606 14.346 18.489 22.194 26.692z" fill="#d0cde1"/><g fill="#ff9d69"><path d="M495.038 352.383c-2.361 4.275-19.771 14.889-23.132 18.432-18.779 19.794-53.053 19.052-70.228 40.253-6.043 7.459-9.182 16.832-11.491 26.15-3.266 13.179-5.009 27.551.461 39.977 5.264 11.957 16.345 20.223 23.868 30.904 8.261 11.727 11.975 25.966 15.534 39.862 2.628 10.26 5.278 20.774 4.254 31.316-1.164 11.986-6.964 22.96-10.388 34.505s-4.016 25.295 3.902 34.368c5.817 6.666 14.941 9.308 23.662 10.795 11.132 1.897 22.445 2.438 33.726 2.936 9.969.44 20.959.526 28.623-5.865 6.047-5.043 8.676-13.226 9.016-21.093s-1.297-15.664-2.322-23.471c-1.063-8.093-1.471-16.257-1.813-24.412q-2.3-54.889-.628-109.849c.232-7.624.514-15.342-1.112-22.795-2.138-9.801-7.435-18.561-11.855-27.566-8.773-17.875-12.922-35.239-11.566-55.107 1.339-19.61 9.89-34.55 1.488-19.339zm98.181 1.487c3.597 3.697 15.819 4.915 20.394 7.296 4.203 2.187 8.854 3.33 13.407 4.642a174.05 174.05 0 0 1 47.097 21.616 28.58 28.58 0 0 1 7.876 6.803c2.56 3.561 3.489 8.004 4.357 12.303 2.24 11.098 4.492 22.329 3.988 33.639-.534 12.006-4.151 23.633-7.738 35.103l-13.405 42.856c-10.006 31.989-20.076 64.294-22.891 97.693a229.8 229.8 0 0 0 2.062 55.486c.295 1.844.542 3.958-.676 5.374-.883.873-2.045 1.408-3.283 1.51-6.47 1.012-12.731-2.287-18.593-5.206a205.9 205.9 0 0 0-56.759-18.572c7.707-11.137 13.653-23.395 17.629-36.342a219.88 219.88 0 0 0 5.326-24.994l6.236-36.067c2.287-13.225 4.577-26.485 5.349-39.884a49.93 49.93 0 0 0-.868-15.024c-1.194-4.761-3.569-9.125-5.695-13.549-10.277-21.378-15.099-45.773-11.056-69.146 1.77-10.228 5.209-20.471 3.775-30.751-1.379-9.885.054-17.567-2.482-27.349-10.413-40.165-.816-14.393 5.95-7.438z"/><path d="M401.499 444.867c-4.685 9.723-12.518 18.005-15.184 28.463-1.037 4.888-1.482 9.883-1.324 14.877-.063 7.527-.104 15.206 2.207 22.369 1.488 4.612 3.909 8.865 5.653 13.386a48.54 48.54 0 0 1 3.179 19.832c-.471 9.365-3.652 18.456-3.901 27.83-.391 14.741 6.427 28.599 13.08 41.759a30.7 30.7 0 0 1 44.621-14.609c1.755-1.621 1.942-4.282 2.011-6.67q.738-25.653 1.423-51.307c.72-26.451 1.406-53.255-4.678-79.006-2.747-11.627-7.022-23.209-14.858-32.227-4.126-4.748-18.134-17.256-24.907-11.937-3.046 2.392-2.334 8.904-2.817 12.202-.729 5.212-2.248 10.283-4.505 15.038zm290.208-28.018c2.216 6.901 2.349 14.274 2.393 21.521q.135 22.176-.588 44.346c-.247 7.566-.586 15.237-2.881 22.452-1.513 4.758-3.848 9.22-5.411 13.961-4.683 14.211-2.124 29.624-1.723 44.582.283 4.841-.13 9.698-1.227 14.421-2.471 9.272-9.113 16.765-13.749 25.167-4.402 7.98-7.059 16.924-12.317 24.368s-14.36 13.342-23.183 11.057c-6.685-1.731-11.435-7.648-14.72-13.722a67.31 67.31 0 0 1-6.959-43.658c3.298-18.154 13.962-34.259 17.808-52.305 5.281-24.781-2.745-50.353-2.506-75.69a36.59 36.59 0 0 1 1.595-11.733c2.017-5.787 6.35-10.409 10.352-15.05a190.02 190.02 0 0 0 13.913-18.259c2.865-4.273 6.757-15.264 11.837-16.178 11.342-2.04 24.551 15.956 27.365 24.719z"/></g><path d="M342.649 663.857a69.01 69.01 0 0 0-19.197-2.041c-13.737.759-26.484 7.387-34.997 18.195s-11.967 24.754-9.486 38.286c1.335 7.281 4.335 14.146 7.607 20.786 5.091 10.332 11.197 20.64 20.622 27.261 5.513 3.873 11.894 6.288 18.2 8.663l49.639 18.7 21.981 8.053c37.05 12.806 75.677 20.486 114.808 22.824 11.919.71 24.019.907 35.647-1.806 2.759-.644 5.703-1.604 7.3-3.944a12.5 12.5 0 0 0 1.631-5.388l3.055-21.384c.43-3.011.844-6.18-.26-9.014-1.399-3.594-4.907-5.855-8.251-7.775-32.634-18.743-70.738-29.084-98.207-54.809-6.467-6.056-11.878-15.656-19.735-19.769-8.91-4.665-19.402-7.327-28.611-11.626-20.133-9.398-39.927-20.197-61.746-25.212z" fill="#2f2e41"/><path d="M392.207 692.685c17.545 5.498 91.622 43.587 104.319 56.885-1.702.613-59.446-31.747-61.178-32.267-15.75-4.727-31.588-9.485-46.545-16.402-3.009-1.392-19.548-7.933-18.799-11.729.845-4.284 19.088 2.538 22.203 3.514z" opacity=".1"/><g fill="#fc9"><path d="M611.096 835.675a4.12 4.12 0 0 0 2.781-.819c.707-.907 1.02-2.06.869-3.201q-.041-14.566-.082-29.132c-8.377-3.991-17.748-5.271-26.946-6.5l-42.915-5.736c.986.132-6.71 18.484-5.53 20.934 2.08 4.318 17.974 8.145 22.46 10.184 15.594 7.088 31.798 14.88 49.362 14.269z"/><path d="M476.45 802.423c-8.103 1.291-17.146 2.431-22.394 8.739-6.654 7.999-3.822 19.923-.647 29.832.472 2.005 1.418 3.866 2.76 5.428 2.166 2.137 5.486 2.45 8.523 2.643 7.39.468 15.254.835 21.71-2.79 3.057-1.716 5.584-4.225 8.434-6.269a54.07 54.07 0 0 1 15.506-7.089c10.131-3.187 20.56-5.336 31.125-6.414 4.142-.422 8.366-.694 12.261-2.161s7.503-4.377 8.635-8.384c1.496-5.294-1.581-10.692-4.532-15.335-3.676-5.784-7.571-11.873-13.052-16.131-7.996-6.211-11.952-1.443-20.007 2.532-15.245 7.524-31.535 12.715-48.322 15.4z"/></g><g fill="#2f2e41"><path d="M455.275 809.722l-51.449-15.207c-6.257-1.849-12.621-3.715-19.146-3.71s-13.351 2.144-17.583 7.111c-3.99 4.682-5.131 11.082-6.126 17.152l-2.128 12.986c-1.081 6.599-2.164 13.325-1.191 19.941s4.351 13.226 10.221 16.429c7.12 3.884 15.846 1.987 23.791.362a259.02 259.02 0 0 1 48.756-5.228c6.158-.074 12.617.003 18.059-2.881 6.468-3.428 10.338-10.677 11.004-17.968 1.012-11.093-2.685-25.583-14.208-28.988zM631.32 796.47c6.67-1.169 12.556-4.96 18.947-7.197 8.996-3.149 18.744-3.149 28.275-3.115 3.499.013 7.225.091 10.137 2.03 4.198 2.795 5.274 8.388 5.988 13.381q2.153 15.062 4.307 30.123c.81 5.666 1.615 11.483.352 17.066s-5.069 10.964-10.608 12.404c-6.728 1.749-13.323-2.549-19.675-5.372-15.877-7.056-34.333-5.253-50.887-10.527-3.072-.979-6.363-2.475-7.616-5.446a12.39 12.39 0 0 1-.593-5.205c.284-9.682-1.759-22.904 1.156-32.158 2.622-8.322 12.772-5.984 20.217-5.984z"/><path d="M740.198 651.732c10.28-2.578 20.937-3.306 31.473-2.15 8.414.927 17.083 3.268 23.226 9.092 7.477 7.088 9.879 18.051 10.08 28.352.329 20.517-6.476 40.512-19.252 56.569a51.33 51.33 0 0 1-11.007 10.596 72.45 72.45 0 0 1-14.321 6.901l-111.165 43.847c-29.245 11.535-58.593 23.104-89.097 30.708-1.685.813-3.627.912-5.386.275s-3.186-1.958-3.958-3.662a230.31 230.31 0 0 1-24.364-44.568c-.62-.758-.832-1.77-.568-2.713s.972-1.698 1.895-2.022l78.628-45.177c5.632-3.236 11.327-6.519 16.004-11.027a39.73 39.73 0 0 0 8.216-11.439c1.63-3.404 1.782-11.438 3.864-13.954 2.038-2.464 9.011-2.66 12.231-3.629 4.542-1.391 8.989-3.072 13.316-5.033 17.588-7.868 33.251-19.301 50.111-28.514a128.58 128.58 0 0 1 30.074-12.449z"/></g><path d="M695.623 685.47c-13.508 10.146-31 19.472-44.388 29.885-4.569 3.554-80.741 46.378-81.818 52.066 12.491 2.105 92.057-53.558 103.441-59.112s21.475-13.387 31.475-21.162c2.548-1.981 13.348-7.938 6.033-10.151-4.121-1.247-11.7 6.446-14.743 8.474z" opacity=".1"/><path d="M568.348 373.082H523.21c-3.819 0-6.914 4.648-6.914 10.381v3.802h-.49v8.502h.49v5.951h-.49v5.101h.49v62.731c0 5.733 3.096 10.381 6.914 10.381h45.138c3.819 0 6.914-4.648 6.914-10.381v-86.087c0-5.733-3.096-10.381-6.914-10.381z" fill="#3f3d56"/><path d="M558.468 406.031a14.88 14.88 0 0 1-14.876 14.876 14.88 14.88 0 0 1-14.876-14.876 14.88 14.88 0 0 1 14.876-14.876 14.88 14.88 0 0 1 14.876 14.876z" fill="#d0cde1"/><path d="M621.521 214.545l-60.143-31.504-83.055 12.888-17.183 75.894 42.776-1.646 11.95-27.883v27.424l19.737-.759 11.456-44.391 7.159 47.255 70.168-1.432-2.864-55.847z" fill="#4d2d1a"/><path d="M418.169 582.93c2.186 4.871 4.892 9.732 9.196 12.891 5.379 3.947 12.726 4.655 19.112 2.723a33.97 33.97 0 0 0 16.07-11.433c8.378-10.284 12.026-23.674 13.44-36.862s.811-26.515 1.79-39.743c.712-9.616 2.257-19.149 3.8-28.667.324-2 .722-4.147 2.176-5.558 1.759-1.707 4.463-1.799 6.896-2.094 13.662-1.654 24.366-12.377 32.607-23.399 5.503-7.359 10.594-15.561 11.331-24.721s-4.205-19.353-13.061-21.805c-7.301-2.022-14.964 1.532-21.207 5.822a85.47 85.47 0 0 0-33.051 45.114c-2.736 8.976-4.001 18.458-8.01 26.942-8.561 18.114-27.215 26.942-38.432 42.644-12.36 17.302-10.945 39.57-2.657 58.146zm264.656-37.945a36.46 36.46 0 0 1-13.175 25.109 28.24 28.24 0 0 1-16.515 6.66 19.71 19.71 0 0 1-16.038-6.925c-1.751-2.401-3.152-5.039-4.161-7.834-4.921-12.073-8.855-24.893-8.219-37.915.245-5.023 1.169-10.017 1.008-15.043-.184-5.733-1.771-11.316-3.347-16.83l-9.764-34.164a23.1 23.1 0 0 0-2.937-7.134c-3.096-4.382-8.706-6.028-13.854-7.539-12.432-3.649-25.136-8.51-33.789-18.154-2.648-2.951-4.915-6.457-5.385-10.393-.853-7.146 4.45-13.727 10.633-17.411a34.89 34.89 0 0 1 48.578 13.428c1.928 3.58 3.214 7.464 4.881 11.173 3.536 7.867 8.739 14.851 13.032 22.331 10.575 18.426 15.327 39.535 25.857 57.972 8.804 15.416 24.816 22.048 23.195 42.671z" fill="#fc9"/><path d="M1146.701 127.591c-64.674.417-104.644 70.688-71.946 126.489s113.54 55.28 145.516-.937c7.291-12.819 11.08-27.332 10.985-42.079-.299-46.4-38.155-83.772-84.555-83.473zm-2.73 75.423c.048 13.67 32.652 5.248 18.982 5.376l-20.774-12.698c-13.67.048 5.102 40.625 4.974 26.955l2.902-8.798c-.048-13.67-7.631-6.51 6.038-6.638l-6.532 1.087c13.67-.048-1.972-14.021-1.844-.351l-3.746-4.933z" fill="rgba(233, 11, 59, 0.46)"/><path d="M1462.074 314.58l-297.303-102.059" fill="#3f3d56" paint-order="stroke"/><path d="M1094.084 209.983h0m36.992 335.687h0m6.901 31.747h0m88.339-5.522h0" paint-order="fill" fill="#257377"/><g fill="#4a8d91"><path d="M1634.882 653.333h0m-480.341-364.397h0" paint-order="fill"/><path d="M1480.566 295.561h0M416.361 470.858h0M638.312 593.98h0" paint-order="stroke"/></g><g fill="#254a77"><path d="M605.185 653.333h0M490.62 624.347h0m0-59.353h0m-84.197-126.987h0m44.169-17.944h0M433.2 476.655h0m-12.422 77.297h0l-5.521-93.86m1396.855 336.791h0" paint-order="fill"/><path d="M1712.731 719.587h0" paint-order="fill"/></g><path d="M1182.699 631.248h0l-19.324-63.493" fill="#f2f2f2" paint-order="fill"/><path d="M1202.483 482.01c-45.656 0-82.667 37.011-82.667 82.667s37.011 82.667 82.667 82.667 82.667-37.011 82.667-82.667c0-21.925-8.71-42.951-24.213-58.454s-36.53-24.213-58.454-24.213zm26.066 50.021h-10.582c-7.225 0-8.604 3.417-8.604 8.454v10.702h17.207l-2.249 16.788h-14.959v45.566h-19.186v-45.566h-13.76v-16.788h13.76v-12.411c0-14.869 10.313-22.963 23.593-22.963 6.355 0 13.19.48 14.779.689z" fill="rgba(233, 11, 59, 0.51)"/><path d="M1020.652 461.472h0m117.325 37.268h0L987.525 403.5m34.508 66.254h0" paint-order="fill" fill="#f2f2f2"/><path d="M1245.64 674.037h0" fill="#4a8d91" paint-order="stroke"/><path d="M1116.844 253.613c-3.395-4.336.395-10.29 2.893-14.622 2.424-4.212 5.199-9.288 10.525-10.575 2.986-.727 5.671.922 8.174 1.924 2.47.988 5.297 2.978 8.012 2.411 4.409-.913 7.228-5.366 8.774-8.018 3.482-6.012 6.091-12.451 7.625-19.741.747-3.532 1.676-8.379-.807-11.471-3.712-4.617-10.775-2.688-14.529-7.863-3.573-4.925-1.57-10.546-.536-14.907 1.008-4.207 1.798-10.562 6.268-12.471 2.57-1.092 5.129.097 7.512 1.045 2.43.959 4.935 1.606 6.956 2.751 4.897 2.771 8.891 7.212 11.757 13.2 2.811 5.87 3.229 11.489 3.165 16.818-.13 10.421-2.918 20.046-6.601 29.66-3.619 9.455-8.708 19.09-15.916 26.692-9.002 9.489-21.317 13.308-31.541 10.779-1.734-.425-3.834-1.429-5.897-2.274-2.065-.84-4.343-1.428-5.835-3.336z" fill="#fff" fill-rule="evenodd" stroke="#f2f2f2" stroke-width="4.483"/><path d="M675.961 566.948h0l5.962-33.389" fill="#959595" paint-order="fill"/><path d="M1483.05 299.978h0m-309.186-17.95h0m40.028-60.733h0" paint-order="stroke" fill="#fff" stroke="#f2f2f2" stroke-width="24.5"/></svg>