<svg xmlns="http://www.w3.org/2000/svg" viewBox="0 0 512 512"  xmlns:v="https://vecta.io/nano"><path d="M370.223 0H141.777c-17.015 0-30.857 13.841-30.857 30.848V51.2h290.15V30.848C401.071 13.841 387.23 0 370.223 0zm-71.552 42.667h-85.333a8.54 8.54 0 0 1-8.533-8.533 8.54 8.54 0 0 1 8.533-8.533h85.333a8.54 8.54 0 0 1 8.533 8.533 8.54 8.54 0 0 1-8.533 8.533zm59.733 0h-8.533a8.54 8.54 0 0 1-8.533-8.533 8.54 8.54 0 0 1 8.533-8.533h8.533a8.54 8.54 0 0 1 8.533 8.533c.001 4.71-3.822 8.533-8.533 8.533zm-91.81 409.6h-21.188c-3.567 0-6.477 2.901-6.477 6.477v4.122a6.48 6.48 0 0 0 6.477 6.468h21.188c3.567 0 6.468-2.901 6.468-6.468v-4.122c.009-3.576-2.901-6.477-6.468-6.477zm-155.656-384h290.133V409.6H110.938zm0 358.4v54.485c0 17.007 13.841 30.848 30.848 30.848h228.446c17.007 0 30.848-13.841 30.848-30.848v-54.485H110.938zm179.2 36.198c0 12.979-10.556 23.535-23.535 23.535h-21.188c-12.979 0-23.543-10.556-23.543-23.535v-4.122c0-12.979 10.564-23.543 23.543-23.543h21.188c12.979 0 23.535 10.564 23.535 23.543v4.122z"/></svg>